<?xml version="1.0" encoding="UTF-8" standalone="no"?>
<svg
   version="1.0"
   width="3037.4077pt"
   height="305.72879pt"
   viewBox="0 0 3037.4077 305.72879"
   preserveAspectRatio="xMidYMid"
   id="svg44"
   sodipodi:docname="logo_badura.svg"
   inkscape:version="1.2.2 (732a01da63, 2022-12-09, custom)"
   xmlns:inkscape="http://www.inkscape.org/namespaces/inkscape"
   xmlns:sodipodi="http://sodipodi.sourceforge.net/DTD/sodipodi-0.dtd"
   xmlns="http://www.w3.org/2000/svg"
   xmlns:svg="http://www.w3.org/2000/svg">
  <defs
     id="defs48" />
  <sodipodi:namedview
     id="namedview46"
     pagecolor="#ffffff"
     bordercolor="#000000"
     borderopacity="0.25"
     inkscape:showpageshadow="2"
     inkscape:pageopacity="0.0"
     inkscape:pagecheckerboard="0"
     inkscape:deskcolor="#d1d1d1"
     inkscape:document-units="pt"
     showgrid="false"
     inkscape:zoom="0.14389359"
     inkscape:cx="2196.0672"
     inkscape:cy="1567.1303"
     inkscape:window-width="1312"
     inkscape:window-height="704"
     inkscape:window-x="0"
     inkscape:window-y="0"
     inkscape:window-maximized="1"
     inkscape:current-layer="g42" />
  <g
     transform="matrix(0.1,0,0,-0.1,-108.13704,2413.0679)"
     fill="#000000"
     stroke="none"
     id="g42">
    <path
       d="m 14417.447,24049.679 -20,-81 407,-204 406,-204 h -902 l -903,-1 -2,-1135 -3,-1136 -1048,1151 -1048,1150 h -224 -224 l -1000.0002,-1212 c -551,-667 -1001,-1216 -1001,-1220 0,-5 117,-8 259,-8 h 259 l 272,345 272,345 h 1218.0002 1219 l 311,-345 311,-345 h 1297 c 1285,0 1583,6 1836,35 589,68 1037,242 1318,513 146,140 235,285 279,453 31,116 31,288 0,414 -99,410 -493,720 -1109,874 -271,68 -622,111 -901,111 -69,0 -111,4 -106,9 6,5 179,95 385,200 206,104 383,196 393,203 18,13 18,16 0,88 l -19,75 -150,3 -150,3 -314,-160 -314,-159 -318,159 -318,159 h -174 -174 z m -2871,-1322 473,-523 -452,-3 c -249,-1 -654,-1 -902,0 l -450,3 422,523 c 233,287 426,522 430,522 4,0 219,-235 479,-522 z m 4494,428 c 545,-69 880,-191 1086,-396 180,-180 226,-415 124,-638 -134,-292 -562,-494 -1214,-572 -194,-23 -582,-31 -1381,-28 l -835,3 -3,828 -2,828 1047,-4 c 897,-4 1067,-6 1178,-21 z"
       id="path20" />
    <path
       d="m 27875.447,22472.679 c -508,-615 -928,-1117 -935,-1117 -7,1 -251,140 -543,310 -463,270 -527,310 -504,316 15,3 70,11 122,17 315,35 579,185 708,403 109,184 122,435 32,634 -116,258 -361,430 -710,500 -78,16 -228,18 -1737,21 l -1653,4 v -1206 -1205 h 205 205 v 415 415 h 1027 1028 l 692,-415 691,-415 h 406 405 l 272,345 272,345 h 1218 1218 l 311,-345 311,-345 h 270 c 148,0 269,3 269,8 0,4 -497,552 -1103,1217 l -1103,1210 -226,3 -226,2 z m 1610,256 c 260,-286 470,-523 467,-525 -2,-2 -407,-3 -900,-2 l -896,3 422,523 c 232,287 425,522 429,522 4,0 219,-234 478,-521 z m -3470,437 c 248,-69 381,-211 383,-406 1,-61 -4,-86 -25,-131 -73,-159 -239,-254 -485,-279 -74,-8 -539,-10 -1463,-8 l -1355,3 -3,410 c -1,225 0,416 3,423 4,10 283,12 1442,10 1357,-3 1442,-4 1503,-22 z"
       id="path22" />
    <path
       d="m 1083.1855,22356.345 1.8151,-1279.024 1407.9024,-1.684 1408.5074,-2.246 v 1278.463 1278.462 l -37.5118,-28.073 c -382.3783,-279.611 -588.6932,-434.015 -658.8765,-491.846 -27.8314,-23.582 -85.9141,-67.376 -129.4762,-98.257 -42.9571,-30.319 -92.5695,-70.183 -109.5103,-88.712 -17.5458,-19.09 -44.7721,-39.303 -63.528,-48.848 -65.9482,-32.565 -90.7544,-49.97 -102.8549,-71.306 -18.7559,-35.373 -44.7722,-58.393 -107.6952,-96.573 -38.1168,-23.581 -73.2085,-50.532 -98.0147,-76.921 -21.176,-21.897 -64.7381,-57.269 -96.1996,-78.605 -32.0665,-20.774 -84.704,-60.639 -116.7706,-87.589 -112.5354,-94.888 -146.417,-121.277 -186.3489,-147.666 l -40.5369,-26.389 278.9183,-202.129 c 153.6774,-110.609 355.152,-258.275 448.3265,-326.774 93.1744,-69.061 183.3238,-132.507 199.6595,-140.367 43.5621,-20.774 102.855,-20.774 146.417,0 41.747,20.213 68.3683,24.143 94.9896,13.475 28.4364,-10.668 29.6464,-26.389 4.2352,-58.393 -13.9157,-17.967 -22.9911,-23.581 -40.5369,-26.389 -66.5532,-10.106 -147.6271,-28.073 -228.701,-50.532 -49.6124,-14.598 -136.7365,-38.179 -193.6093,-53.339 -56.2677,-15.16 -156.0974,-44.356 -220.8355,-65.13 -111.3254,-34.811 -335.7911,-88.712 -477.9729,-113.978 -231.7261,-41.549 -362.4124,-29.758 -529.4004,48.847 -73.2085,34.25 -152.4673,106.679 -185.7439,169.564 -46.5872,86.466 -74.4185,204.935 -73.8135,308.807 0.605,64.569 3.0252,83.097 16.9408,126.33 33.8816,107.802 96.1996,201.006 187.559,282.419 26.6213,24.143 45.9822,47.725 59.2928,72.991 l 19.966,37.618 3.0251,126.33 3.0252,126.331 19.3609,33.688 c 23.5961,42.671 61.713,83.097 89.5443,94.888 17.5458,7.86 24.8062,8.422 41.142,3.368 16.3357,-5.614 33.8816,-4.491 104.0649,8.423 46.5873,7.86 100.4349,21.335 119.1908,29.196 30.8564,12.914 39.9319,20.774 87.7292,79.728 71.9984,87.589 191.1891,222.903 357.5721,403.696 75.6286,82.536 163.3578,180.231 194.8193,217.288 30.8565,37.057 79.8638,93.765 108.3002,126.33 27.8313,32.565 53.8476,62.323 56.8727,66.253 4.8402,5.054 -172.4332,6.738 -878.5021,6.738 h -884.5523 z"
       id="path24"
       style="stroke-width:0.582842" />
    <path
       d="m 4915.4468,22355.679 v -1206 h 1538 c 1541,0 1722,4 1881,36 423,86 650,320 651,670 0,146 -54,299 -143,400 -48,55 -146,125 -221,160 -31,14 -56,27 -56,29 0,1 24,15 54,30 125,63 213,160 258,283 32,85 31,273 -1,355 -90,229 -306,366 -668,423 -98,16 -257,18 -1700,21 l -1593,4 z m 3285,807 c 116,-27 173,-52 226,-100 51,-46 69,-86 69,-151 0,-127 -148,-233 -398,-283 -41,-9 -433,-13 -1414,-16 l -1358,-4 v 291 291 l 1393,-4 c 1373,-3 1393,-3 1482,-24 z m -130,-913 c 191,-20 319,-74 408,-170 65,-69 89,-132 90,-226 0,-150 -98,-249 -301,-307 l -77,-22 -1432,-3 -1433,-2 v 370 370 h 1328 c 777,0 1364,-4 1417,-10 z"
       id="path26" />
    <path
       d="m 18005.447,22832.679 c 0,-807 0,-805 65,-942 190,-399 726,-666 1545,-767 207,-26 790,-26 1003,-1 815,98 1367,374 1548,773 59,130 59,122 59,927 v 737 h -195 -194 l -3,-687 -3,-688 -27,-69 c -85,-218 -298,-380 -661,-501 -682,-228 -1642,-194 -2241,79 -181,83 -349,222 -413,342 -65,123 -63,99 -63,846 v 678 h -210 -210 z"
       id="path28" />
  </g>
</svg>
