<?xml version="1.0" encoding="UTF-8" standalone="no"?>
<!-- Created with Inkscape (http://www.inkscape.org/) -->

<svg
   width="99.484749mm"
   height="90.361069mm"
   viewBox="0 0 99.484749 90.361069"
   version="1.1"
   id="svg326"
   inkscape:version="1.2.2 (732a01da63, 2022-12-09, custom)"
   sodipodi:docname="logo_male.svg"
   xmlns:inkscape="http://www.inkscape.org/namespaces/inkscape"
   xmlns:sodipodi="http://sodipodi.sourceforge.net/DTD/sodipodi-0.dtd"
   xmlns="http://www.w3.org/2000/svg"
   xmlns:svg="http://www.w3.org/2000/svg">
  <sodipodi:namedview
     id="namedview328"
     pagecolor="#ffffff"
     bordercolor="#000000"
     borderopacity="0.25"
     inkscape:showpageshadow="2"
     inkscape:pageopacity="0.0"
     inkscape:pagecheckerboard="0"
     inkscape:deskcolor="#d1d1d1"
     inkscape:document-units="mm"
     showgrid="false"
     inkscape:zoom="0.42404602"
     inkscape:cx="360.8099"
     inkscape:cy="140.31496"
     inkscape:window-width="1312"
     inkscape:window-height="704"
     inkscape:window-x="0"
     inkscape:window-y="0"
     inkscape:window-maximized="1"
     inkscape:current-layer="layer1" />
  <defs
     id="defs323" />
  <g
     inkscape:label="Vrstva 1"
     inkscape:groupmode="layer"
     id="layer1"
     transform="translate(-9.6546979,-12.061943)">
    <path
       d="m 9.7187329,57.16328 0.06403,45.12113 49.6676721,0.0594 49.689015,0.0792 V 57.32171 12.220411 l -1.32333,0.990353 C 94.326658,23.074819 87.048327,28.52185 84.572416,30.561999 c -0.98183,0.831921 -3.030859,2.376876 -4.567633,3.466289 -1.515431,1.069587 -3.265647,2.4759 -3.863281,3.129562 -0.618977,0.67345 -1.57946,1.38652 -2.241126,1.72325 -2.326507,1.14882 -3.201614,1.76283 -3.628493,2.51552 -0.661666,1.24788 -1.579464,2.05997 -3.799248,3.40688 -1.344676,0.83188 -2.582633,1.78265 -3.457741,2.7136 -0.747042,0.77248 -2.283816,2.02032 -3.393708,2.77301 -1.131235,0.73286 -2.988169,2.13921 -4.119407,3.08995 -3.97,3.34743 -5.165267,4.27838 -6.573976,5.20932 l -1.430052,0.93095 9.839619,7.13066 c 5.421397,3.90204 12.528974,9.11137 15.815963,11.52786 3.286986,2.43632 6.467257,4.67456 7.043544,4.95184 1.536774,0.73286 3.628496,0.73286 5.165267,0 1.472741,-0.71307 2.411882,-0.85171 3.351022,-0.47537 1.003173,0.37634 1.045859,0.93095 0.149409,2.05998 -0.490915,0.63383 -0.811075,0.83188 -1.430052,0.93094 -2.347849,0.35652 -5.207957,0.99035 -8.068064,1.78266 -1.750215,0.51498 -4.82376,1.34687 -6.830106,1.88168 -1.985,0.53481 -5.50677,1.56478 -7.790586,2.29764 -3.927313,1.22806 -11.845965,3.12956 -16.861823,4.02089 -8.174782,1.46576 -12.785105,1.0498 -18.676071,-1.72321 -2.582633,-1.20827 -5.378708,-3.7634 -6.552633,-5.98184 -1.643493,-3.05033 -2.625319,-7.22965 -2.603976,-10.89403 0.02134,-2.27785 0.106722,-2.93148 0.597634,-4.45664 1.195268,-3.80302 3.393708,-7.09105 6.616665,-9.96312 0.93914,-0.85171 1.62215,-1.68363 2.091718,-2.57496 l 0.704357,-1.32708 0.106718,-4.45664 0.106723,-4.45667 0.683009,-1.18844 c 0.832418,-1.50534 2.177098,-2.93148 3.158924,-3.34744 0.618977,-0.27728 0.875108,-0.29711 1.451399,-0.11882 0.576287,0.19805 1.195268,0.15844 3.671179,-0.29714 1.643496,-0.27728 3.54312,-0.75265 4.204786,-1.02997 1.088546,-0.45558 1.408709,-0.73286 3.094892,-2.81263 2.539944,-3.08994 6.744727,-7.863521 12.61435,-14.241496 2.668009,-2.911687 5.7629,-6.35815 6.872792,-7.665439 1.088549,-1.307288 2.817418,-3.307821 3.820591,-4.456642 0.981826,-1.14882 1.899624,-2.198617 2.006342,-2.337258 0.170752,-0.178294 -6.08306,-0.237702 -30.991603,-0.237702 H 9.6546979 Z"
       id="path24"
       style="stroke-width:0.0205614" />
  </g>
</svg>
